<svg width="40" height="40" viewBox="0 0 40 40" fill="none" xmlns="http://www.w3.org/2000/svg">
<circle cx="20" cy="20" r="20" fill="#C4C4C4"/>
<g clip-path="url(#clip0_1_17765)">
<path d="M39.4017 24.8367C36.7295 35.5567 25.8684 42.0732 15.1637 39.4009C4.44342 36.7287 -2.07315 25.8681 0.599197 15.1635C3.27138 4.44354 14.1167 -2.07302 24.837 0.599321C35.5417 3.25588 42.074 14.1165 39.4017 24.8367Z" fill="url(#paint0_linear_1_17765)"/>
<path d="M29.5225 17.5079C29.9131 14.8517 27.8975 13.4142 25.1162 12.4611L26.0225 8.85168L23.835 8.30481L22.96 11.8204C22.3818 11.6798 21.7881 11.5392 21.1943 11.4142L22.0693 7.88293L19.8818 7.33606L18.9912 10.9298C18.5068 10.8204 18.0381 10.7111 17.585 10.6017V10.5861L14.5537 9.83606L13.9756 12.1798C13.9756 12.1798 15.6006 12.5548 15.5693 12.5704C16.46 12.7892 16.6162 13.3829 16.585 13.8517L15.5537 17.9611C15.6162 17.9767 15.6943 17.9923 15.7881 18.0392C15.71 18.0236 15.6318 18.0079 15.5537 17.9767L14.1162 23.7267C14.0068 23.9923 13.7256 24.3986 13.1162 24.2423C13.1318 24.2736 11.5225 23.8517 11.5225 23.8517L10.4287 26.3673L13.2881 27.0861C13.8193 27.2267 14.335 27.3517 14.8506 27.4923L13.9443 31.1329L16.1318 31.6798L17.0381 28.0704C17.6318 28.2267 18.2256 28.3829 18.7881 28.5236L17.8975 32.1173L20.085 32.6642L20.9912 29.0236C24.7412 29.7267 27.5537 29.4454 28.7256 26.0548C29.6787 23.3361 28.6787 21.7579 26.71 20.7267C28.1631 20.3986 29.2412 19.4454 29.5225 17.5079ZM24.5068 24.5392C23.835 27.2579 19.2412 25.7892 17.7568 25.4142L18.96 20.5861C20.4443 20.9611 25.2256 21.6954 24.5068 24.5392ZM25.1943 17.4611C24.5693 19.9454 20.7568 18.6798 19.5225 18.3673L20.6162 13.9923C21.8506 14.3048 25.835 14.8829 25.1943 17.4611Z" fill="white"/>
</g>
<defs>
<linearGradient id="paint0_linear_1_17765" x1="19.9892" y1="-0.00947792" x2="19.9892" y2="39.9961" gradientUnits="userSpaceOnUse">
<stop stop-color="#F9AA4B"/>
<stop offset="1" stop-color="#F7931A"/>
</linearGradient>
<clipPath id="clip0_1_17765">
<rect width="40" height="40" fill="white"/>
</clipPath>
</defs>
</svg>
